<?xml version="1.0" encoding="utf-8"?>
<!-- Generator: Adobe Illustrator 28.3.0, SVG Export Plug-In . SVG Version: 6.00 Build 0)  -->
<svg version="1.1" id="Layer_1" xmlns="http://www.w3.org/2000/svg" xmlns:xlink="http://www.w3.org/1999/xlink" x="0px" y="0px"
	 viewBox="0 0 280 70" style="enable-background:new 0 0 280 70;" xml:space="preserve">
<style type="text/css">
	.st0{fill:#F5F5F5;}
	.st1{fill:#FFFFFF;}
	.st2{fill:#FFFFFF;stroke:#EA9734;stroke-width:2;stroke-miterlimit:10;}
	.st3{fill:#EA9734;}
	.st4{fill:none;stroke:#000000;stroke-width:1.5;stroke-linecap:round;stroke-linejoin:round;}
	
		.st5{clip-path:url(#SVGID_00000160156211190724129960000011115544703328148116_);fill:#FFFFFF;stroke:#EA9734;stroke-width:2;stroke-miterlimit:10;}
	.st6{clip-path:url(#SVGID_00000160156211190724129960000011115544703328148116_);}
	.st7{fill:none;stroke:#1FB3A4;stroke-width:2;stroke-miterlimit:10;}
	.st8{fill:#1FB3A4;}
	.st9{fill:none;stroke:#C01828;stroke-width:2;stroke-miterlimit:10;}
	.st10{fill:#C01828;}
	.st11{fill:#F59E0B;}
</style>
<g>
	<rect x="84.61" y="6" class="st11" width="190.39" height="59"/>
	<g>
		<path d="M9.26,54V29.8H5v-3.15h4.26c0-7.5,3.56-10.15,10.52-10.3v3.25h-0.1c-4.86,0-6.91,2-6.91,6.85v0.2h7.02v3.15h-7.02V54H9.26
			z"/>
		<path d="M47.39,54v-4.8h-0.1c-2.25,3.4-6.21,5.45-10.67,5.45c-8.22,0-14.73-6.2-14.73-14.4c0-8.2,6.71-14.3,14.73-14.3
			c4.56,0,8.47,2.05,10.67,5.5h0.1v-4.8h3.51V54H47.39z M47.59,40.35c0-6.1-4.81-11.25-11.02-11.25c-6.31,0-11.17,4.8-11.17,11.3
			c0,6.3,4.76,11.1,11.22,11.1C42.73,51.5,47.59,46.5,47.59,40.35z"/>
		<path d="M57.26,23.3V17h3.51v6.3H57.26z M57.26,54V26.65h3.51V54H57.26z"/>
		<path d="M67.28,54V26.65h3.51v3.95h0.1c1.2-2.85,3.31-4.4,7.72-4.65v3.7h-0.05c-5.06,0.5-7.77,3.8-7.77,8.2V54H67.28z"/>
	</g>
	<g>
		<path class="st1" d="M115.08,53.65V49.7h-0.1c-2.15,3-5.76,4.65-9.82,4.65c-8.07,0-14.43-6.1-14.43-14.25
			c0-8.45,6.01-14.9,14.28-14.9c3.76,0,7.32,1.35,9.57,4.15h0.1v-12.7h5.21v37H115.08z M105.41,29.95c-5.31,0-9.47,4.45-9.47,9.9
			c0,5.2,4.26,9.75,9.47,9.75c5.26,0,9.67-4.3,9.67-9.55C115.08,34.4,111.27,29.95,105.41,29.95z"/>
		<path class="st1" d="M126.6,22.75v-6.1h5.21v6.1H126.6z M126.6,53.65v-27.7h5.21v27.7H126.6z"/>
		<path class="st1" d="M157.91,53.65v-15.1c0-5.85-2.3-8.6-6.91-8.6c-4.56,0-7.31,3.35-7.31,8.55v15.15h-5.21v-27.7h4.86v2.95h0.1
			c2.05-2.65,4.91-3.7,8.12-3.7c6.66,0,11.57,4.2,11.57,11.85v16.6H157.91z"/>
		<path class="st1" d="M170.29,53.65v-37h5.21v37H170.29z M186.72,53.65L175.6,39.3l9.87-13.35h6.16L181.56,39l11.67,14.65H186.72z"
			/>
		<path class="st1" d="M215.43,53.65v-3h-0.1c-1.35,2.35-4.51,3.7-8.17,3.7c-5.96,0-11.57-3.2-11.57-12.95V25.95h5.21V41
			c0,5.8,2.15,8.6,6.91,8.6c4.81,0,7.26-3.35,7.26-8.7V25.95h5.21v27.7H215.43z"/>
		<path class="st1" d="M263.68,53.65v-15.5c0-5.25-2.2-8.2-6.56-8.2c-4.61,0-6.61,2.55-6.61,8.1v15.6h-5.21v-16.1
			c0-5.45-2.56-7.6-6.31-7.6c-4.61,0-6.86,2.7-6.86,8.15v15.55h-5.21v-27.7h4.81v3h0.1c2.25-2.65,4.36-3.75,7.97-3.75
			c3.61,0,7.21,1.75,8.62,4.65c2.01-3.15,4.76-4.65,9.17-4.65c7.21,0,11.32,4.5,11.32,11.65v16.8H263.68z"/>
	</g>
</g>
</svg>
